<svg width="48" height="48" viewBox="0 0 48 48" fill="none" xmlns="http://www.w3.org/2000/svg">
<path fill-rule="evenodd" clip-rule="evenodd" d="M24.0002 28.244L34.6062 38.85C35.169 39.4128 35.9323 39.7289 36.7282 39.7289C37.5241 39.7289 38.2874 39.4128 38.8502 38.85C39.413 38.2872 39.7291 37.5239 39.7291 36.728C39.7291 35.9321 39.413 35.1688 38.8502 34.606L28.2402 24L38.8482 13.394C39.1267 13.1153 39.3476 12.7845 39.4983 12.4205C39.649 12.0564 39.7265 11.6663 39.7264 11.2723C39.7263 10.8783 39.6487 10.4881 39.4978 10.1242C39.3469 9.7602 39.1259 9.42951 38.8472 9.15098C38.5685 8.87244 38.2377 8.65152 37.8737 8.50083C37.5096 8.35014 37.1195 8.27263 36.7255 8.27272C36.3315 8.27282 35.9414 8.35051 35.5774 8.50137C35.2134 8.65224 34.8827 8.87331 34.6042 9.15198L24.0002 19.758L13.3942 9.15198C13.1176 8.86532 12.7867 8.63662 12.4207 8.47922C12.0548 8.32182 11.6612 8.23888 11.2628 8.23523C10.8645 8.23159 10.4694 8.3073 10.1007 8.45797C9.7319 8.60864 9.39684 8.83124 9.11503 9.11279C8.83322 9.39433 8.61031 9.72918 8.45929 10.0978C8.30827 10.4664 8.23218 10.8614 8.23545 11.2598C8.23873 11.6581 8.3213 12.0518 8.47835 12.4179C8.6354 12.784 8.86379 13.1151 9.15018 13.392L19.7602 24L9.15219 34.608C8.86579 34.8849 8.6374 35.216 8.48035 35.5821C8.3233 35.9482 8.24073 36.3419 8.23745 36.7402C8.23418 37.1385 8.31027 37.5335 8.46129 37.9022C8.61231 38.2708 8.83522 38.6056 9.11703 38.8872C9.39884 39.1687 9.7339 39.3913 10.1027 39.542C10.4714 39.6926 10.8665 39.7684 11.2648 39.7647C11.6632 39.7611 12.0568 39.6781 12.4227 39.5207C12.7887 39.3633 13.1196 39.1346 13.3962 38.848L24.0002 28.244Z" fill="white"/>
</svg>
